<svg id="visual" viewBox="0 0 960 540" width="960" height="540" xmlns="http://www.w3.org/2000/svg" xmlns:xlink="http://www.w3.org/1999/xlink" version="1.1"><g stroke-width="1" stroke-linejoin="bevel"><path d="M513 244L511 334L550 238Z" fill="#001c38" stroke="#001c38"></path><path d="M511 334L631 265L550 238Z" fill="#002b71" stroke="#002b71"></path><path d="M511 334L572 385L631 265Z" fill="#0d2f8c" stroke="#0d2f8c"></path><path d="M572 385L647 363L631 265Z" fill="#002147" stroke="#002147"></path><path d="M631 265L597 168L550 238Z" fill="#002b71" stroke="#002b71"></path><path d="M541 118L456 167L513 244Z" fill="#00101c" stroke="#00101c"></path><path d="M541 118L513 244L550 238Z" fill="#022d7e" stroke="#022d7e"></path><path d="M513 244L392 236L511 334Z" fill="#1b3099" stroke="#1b3099"></path><path d="M456 167L392 236L513 244Z" fill="#002b71" stroke="#002b71"></path><path d="M511 334L439 436L572 385Z" fill="#00172a" stroke="#00172a"></path><path d="M597 168L541 118L550 238Z" fill="#1b3099" stroke="#1b3099"></path><path d="M406 123L417 163L456 167Z" fill="#022d7e" stroke="#022d7e"></path><path d="M456 167L417 163L392 236Z" fill="#0d2f8c" stroke="#0d2f8c"></path><path d="M372 353L439 436L511 334Z" fill="#00101c" stroke="#00101c"></path><path d="M572 385L693 442L647 363Z" fill="#00172a" stroke="#00172a"></path><path d="M392 236L372 353L511 334Z" fill="#002863" stroke="#002863"></path><path d="M765 256L648 137L631 265Z" fill="#0d2f8c" stroke="#0d2f8c"></path><path d="M631 265L648 137L597 168Z" fill="#0d2f8c" stroke="#0d2f8c"></path><path d="M597 168L641 77L541 118Z" fill="#002863" stroke="#002863"></path><path d="M439 436L581 488L572 385Z" fill="#002147" stroke="#002147"></path><path d="M458 71L406 123L456 167Z" fill="#002555" stroke="#002555"></path><path d="M417 163L327 209L392 236Z" fill="#00101c" stroke="#00101c"></path><path d="M392 236L327 209L372 353Z" fill="#00101c" stroke="#00101c"></path><path d="M581 488L693 442L572 385Z" fill="#002b71" stroke="#002b71"></path><path d="M647 363L765 256L631 265Z" fill="#2931a6" stroke="#2931a6"></path><path d="M372 353L369 438L439 436Z" fill="#002b71" stroke="#002b71"></path><path d="M516 540L547 540L581 488Z" fill="#0d2f8c" stroke="#0d2f8c"></path><path d="M406 123L327 209L417 163Z" fill="#1b3099" stroke="#1b3099"></path><path d="M372 353L258 402L369 438Z" fill="#002863" stroke="#002863"></path><path d="M784 377L765 256L647 363Z" fill="#2931a6" stroke="#2931a6"></path><path d="M541 118L458 71L456 167Z" fill="#002555" stroke="#002555"></path><path d="M509 0L458 71L541 118Z" fill="#022d7e" stroke="#022d7e"></path><path d="M731 66L641 77L648 137Z" fill="#002b71" stroke="#002b71"></path><path d="M648 137L641 77L597 168Z" fill="#2931a6" stroke="#2931a6"></path><path d="M516 540L581 488L439 436Z" fill="#2931a6" stroke="#2931a6"></path><path d="M581 488L707 540L693 442Z" fill="#002555" stroke="#002555"></path><path d="M374 540L516 540L439 436Z" fill="#022d7e" stroke="#022d7e"></path><path d="M693 442L784 377L647 363Z" fill="#002147" stroke="#002147"></path><path d="M902 261L799 189L765 256Z" fill="#0d2f8c" stroke="#0d2f8c"></path><path d="M765 256L799 189L648 137Z" fill="#002147" stroke="#002147"></path><path d="M175 214L251 276L327 209Z" fill="#2931a6" stroke="#2931a6"></path><path d="M327 209L251 276L372 353Z" fill="#00101c" stroke="#00101c"></path><path d="M313 55L327 209L406 123Z" fill="#00172a" stroke="#00172a"></path><path d="M667 0L535 0L641 77Z" fill="#00172a" stroke="#00172a"></path><path d="M641 77L535 0L541 118Z" fill="#0d2f8c" stroke="#0d2f8c"></path><path d="M535 0L509 0L541 118Z" fill="#2931a6" stroke="#2931a6"></path><path d="M361 0L313 55L406 123Z" fill="#022d7e" stroke="#022d7e"></path><path d="M258 402L328 491L369 438Z" fill="#1b3099" stroke="#1b3099"></path><path d="M369 438L374 540L439 436Z" fill="#001c38" stroke="#001c38"></path><path d="M693 442L786 448L784 377Z" fill="#2931a6" stroke="#2931a6"></path><path d="M784 377L874 353L765 256Z" fill="#022d7e" stroke="#022d7e"></path><path d="M727 540L786 448L693 442Z" fill="#002147" stroke="#002147"></path><path d="M799 189L731 66L648 137Z" fill="#002863" stroke="#002863"></path><path d="M328 491L374 540L369 438Z" fill="#1b3099" stroke="#1b3099"></path><path d="M547 540L707 540L581 488Z" fill="#00172a" stroke="#00172a"></path><path d="M251 276L258 402L372 353Z" fill="#022d7e" stroke="#022d7e"></path><path d="M707 540L727 540L693 442Z" fill="#001c38" stroke="#001c38"></path><path d="M731 66L667 0L641 77Z" fill="#00101c" stroke="#00101c"></path><path d="M251 276L234 382L258 402Z" fill="#00172a" stroke="#00172a"></path><path d="M163 471L309 540L328 491Z" fill="#2931a6" stroke="#2931a6"></path><path d="M361 0L406 123L458 71Z" fill="#002147" stroke="#002147"></path><path d="M509 0L361 0L458 71Z" fill="#002863" stroke="#002863"></path><path d="M163 471L328 491L258 402Z" fill="#0d2f8c" stroke="#0d2f8c"></path><path d="M328 491L309 540L374 540Z" fill="#002147" stroke="#002147"></path><path d="M893 450L784 377L786 448Z" fill="#2931a6" stroke="#2931a6"></path><path d="M893 450L874 353L784 377Z" fill="#00172a" stroke="#00172a"></path><path d="M799 189L856 163L731 66Z" fill="#1b3099" stroke="#1b3099"></path><path d="M731 66L808 0L667 0Z" fill="#2931a6" stroke="#2931a6"></path><path d="M902 261L856 163L799 189Z" fill="#002863" stroke="#002863"></path><path d="M313 55L231 123L327 209Z" fill="#1b3099" stroke="#1b3099"></path><path d="M251 276L152 241L234 382Z" fill="#002147" stroke="#002147"></path><path d="M280 0L231 123L313 55Z" fill="#1b3099" stroke="#1b3099"></path><path d="M874 353L902 261L765 256Z" fill="#002b71" stroke="#002b71"></path><path d="M231 123L175 214L327 209Z" fill="#2931a6" stroke="#2931a6"></path><path d="M874 540L893 450L786 448Z" fill="#001c38" stroke="#001c38"></path><path d="M874 353L960 278L902 261Z" fill="#001c38" stroke="#001c38"></path><path d="M361 0L280 0L313 55Z" fill="#001c38" stroke="#001c38"></path><path d="M57 278L152 241L61 166Z" fill="#00101c" stroke="#00101c"></path><path d="M109 61L175 214L231 123Z" fill="#002b71" stroke="#002b71"></path><path d="M175 214L152 241L251 276Z" fill="#0d2f8c" stroke="#0d2f8c"></path><path d="M234 382L163 471L258 402Z" fill="#002b71" stroke="#002b71"></path><path d="M874 61L731 66L856 163Z" fill="#022d7e" stroke="#022d7e"></path><path d="M874 61L808 0L731 66Z" fill="#00101c" stroke="#00101c"></path><path d="M960 98L874 61L856 163Z" fill="#002555" stroke="#002555"></path><path d="M130 396L163 471L234 382Z" fill="#001c38" stroke="#001c38"></path><path d="M727 540L874 540L786 448Z" fill="#002b71" stroke="#002b71"></path><path d="M960 381L960 278L874 353Z" fill="#001c38" stroke="#001c38"></path><path d="M902 261L960 193L856 163Z" fill="#00101c" stroke="#00101c"></path><path d="M960 381L874 353L893 450Z" fill="#002147" stroke="#002147"></path><path d="M152 241L130 396L234 382Z" fill="#00172a" stroke="#00172a"></path><path d="M960 474L960 381L893 450Z" fill="#001c38" stroke="#001c38"></path><path d="M960 278L960 193L902 261Z" fill="#001c38" stroke="#001c38"></path><path d="M960 0L865 0L874 61Z" fill="#0d2f8c" stroke="#0d2f8c"></path><path d="M874 61L865 0L808 0Z" fill="#002863" stroke="#002863"></path><path d="M130 396L131 470L163 471Z" fill="#002b71" stroke="#002b71"></path><path d="M163 471L150 540L309 540Z" fill="#00101c" stroke="#00101c"></path><path d="M280 0L196 0L231 123Z" fill="#002147" stroke="#002147"></path><path d="M874 540L960 474L893 450Z" fill="#1b3099" stroke="#1b3099"></path><path d="M960 193L960 98L856 163Z" fill="#1b3099" stroke="#1b3099"></path><path d="M131 470L150 540L163 471Z" fill="#00172a" stroke="#00172a"></path><path d="M61 166L152 241L175 214Z" fill="#002555" stroke="#002555"></path><path d="M152 241L57 278L130 396Z" fill="#022d7e" stroke="#022d7e"></path><path d="M0 482L103 540L131 470Z" fill="#002863" stroke="#002863"></path><path d="M131 470L103 540L150 540Z" fill="#1b3099" stroke="#1b3099"></path><path d="M196 0L109 61L231 123Z" fill="#002b71" stroke="#002b71"></path><path d="M874 540L960 540L960 474Z" fill="#002863" stroke="#002863"></path><path d="M109 61L61 166L175 214Z" fill="#002863" stroke="#002863"></path><path d="M0 482L131 470L130 396Z" fill="#0d2f8c" stroke="#0d2f8c"></path><path d="M960 98L960 0L874 61Z" fill="#002863" stroke="#002863"></path><path d="M196 0L103 0L109 61Z" fill="#1b3099" stroke="#1b3099"></path><path d="M0 112L0 160L61 166Z" fill="#1b3099" stroke="#1b3099"></path><path d="M57 278L0 354L130 396Z" fill="#001c38" stroke="#001c38"></path><path d="M0 160L0 304L57 278Z" fill="#002147" stroke="#002147"></path><path d="M0 160L57 278L61 166Z" fill="#002555" stroke="#002555"></path><path d="M0 304L0 354L57 278Z" fill="#0d2f8c" stroke="#0d2f8c"></path><path d="M0 112L61 166L109 61Z" fill="#00101c" stroke="#00101c"></path><path d="M0 0L0 112L109 61Z" fill="#002863" stroke="#002863"></path><path d="M0 354L0 482L130 396Z" fill="#002147" stroke="#002147"></path><path d="M0 482L0 540L103 540Z" fill="#002863" stroke="#002863"></path><path d="M103 0L0 0L109 61Z" fill="#00172a" stroke="#00172a"></path></g></svg>