<svg id="visual" viewBox="0 0 960 540" width="960" height="540" xmlns="http://www.w3.org/2000/svg" xmlns:xlink="http://www.w3.org/1999/xlink" version="1.1"><rect x="0" y="0" width="960" height="540" fill="#001220"></rect><path d="M0 161L22.8 163.8C45.7 166.7 91.3 172.3 137 169.7C182.7 167 228.3 156 274 152.2C319.7 148.3 365.3 151.7 411.2 163.2C457 174.7 503 194.3 548.8 195.7C594.7 197 640.3 180 686 177.2C731.7 174.3 777.3 185.7 823 183.5C868.7 181.3 914.3 165.7 937.2 157.8L960 150L960 0L937.2 0C914.3 0 868.7 0 823 0C777.3 0 731.7 0 686 0C640.3 0 594.7 0 548.8 0C503 0 457 0 411.2 0C365.3 0 319.7 0 274 0C228.3 0 182.7 0 137 0C91.3 0 45.7 0 22.8 0L0 0Z" fill="#76e5c3"></path><path d="M0 151L22.8 153.8C45.7 156.7 91.3 162.3 137 159.2C182.7 156 228.3 144 274 140.5C319.7 137 365.3 142 411.2 148.5C457 155 503 163 548.8 158.8C594.7 154.7 640.3 138.3 686 135.8C731.7 133.3 777.3 144.7 823 145C868.7 145.3 914.3 134.7 937.2 129.3L960 124L960 0L937.2 0C914.3 0 868.7 0 823 0C777.3 0 731.7 0 686 0C640.3 0 594.7 0 548.8 0C503 0 457 0 411.2 0C365.3 0 319.7 0 274 0C228.3 0 182.7 0 137 0C91.3 0 45.7 0 22.8 0L0 0Z" fill="#00c7e4"></path><path d="M0 142L22.8 133.8C45.7 125.7 91.3 109.3 137 105.2C182.7 101 228.3 109 274 110.3C319.7 111.7 365.3 106.3 411.2 100C457 93.7 503 86.3 548.8 88.7C594.7 91 640.3 103 686 113.5C731.7 124 777.3 133 823 129.3C868.7 125.7 914.3 109.3 937.2 101.2L960 93L960 0L937.2 0C914.3 0 868.7 0 823 0C777.3 0 731.7 0 686 0C640.3 0 594.7 0 548.8 0C503 0 457 0 411.2 0C365.3 0 319.7 0 274 0C228.3 0 182.7 0 137 0C91.3 0 45.7 0 22.8 0L0 0Z" fill="#009eee"></path><path d="M0 91L22.8 90.7C45.7 90.3 91.3 89.7 137 89.8C182.7 90 228.3 91 274 89.2C319.7 87.3 365.3 82.7 411.2 77.7C457 72.7 503 67.3 548.8 70.7C594.7 74 640.3 86 686 86.8C731.7 87.7 777.3 77.3 823 76.2C868.7 75 914.3 83 937.2 87L960 91L960 0L937.2 0C914.3 0 868.7 0 823 0C777.3 0 731.7 0 686 0C640.3 0 594.7 0 548.8 0C503 0 457 0 411.2 0C365.3 0 319.7 0 274 0C228.3 0 182.7 0 137 0C91.3 0 45.7 0 22.8 0L0 0Z" fill="#006be7"></path><path d="M0 57L22.8 53.3C45.7 49.7 91.3 42.3 137 42.5C182.7 42.7 228.3 50.3 274 51.8C319.7 53.3 365.3 48.7 411.2 43.5C457 38.3 503 32.7 548.8 34.3C594.7 36 640.3 45 686 49.7C731.7 54.3 777.3 54.7 823 52.3C868.7 50 914.3 45 937.2 42.5L960 40L960 0L937.2 0C914.3 0 868.7 0 823 0C777.3 0 731.7 0 686 0C640.3 0 594.7 0 548.8 0C503 0 457 0 411.2 0C365.3 0 319.7 0 274 0C228.3 0 182.7 0 137 0C91.3 0 45.7 0 22.8 0L0 0Z" fill="#3324c7"></path></svg>