<svg id="visual" viewBox="0 0 960 540" width="960" height="540" xmlns="http://www.w3.org/2000/svg" xmlns:xlink="http://www.w3.org/1999/xlink" version="1.1"><rect x="0" y="0" width="960" height="540" fill="#002233"></rect><path d="M0 520L14.5 518.5C29 517 58 514 87.2 513.7C116.3 513.3 145.7 515.7 174.8 515.7C204 515.7 233 513.3 262 510.5C291 507.7 320 504.3 349 503.2C378 502 407 503 436.2 506C465.3 509 494.7 514 523.8 514.7C553 515.3 582 511.7 611 509.5C640 507.3 669 506.7 698 506.7C727 506.7 756 507.3 785.2 508.8C814.3 510.3 843.7 512.7 872.8 514.5C902 516.3 931 517.7 945.5 518.3L960 519L960 541L945.5 541C931 541 902 541 872.8 541C843.7 541 814.3 541 785.2 541C756 541 727 541 698 541C669 541 640 541 611 541C582 541 553 541 523.8 541C494.7 541 465.3 541 436.2 541C407 541 378 541 349 541C320 541 291 541 262 541C233 541 204 541 174.8 541C145.7 541 116.3 541 87.2 541C58 541 29 541 14.5 541L0 541Z" fill="#0066FF" stroke-linecap="round" stroke-linejoin="miter"></path></svg>